<?xml version="1.0" standalone="no"?>
<!DOCTYPE svg PUBLIC "-//W3C//DTD SVG 20010904//EN"
 "http://www.w3.org/TR/2001/REC-SVG-20010904/DTD/svg10.dtd">
<svg version="1.0" xmlns="http://www.w3.org/2000/svg"
 width="84.000000pt" height="84.000000pt" viewBox="0 0 84.000000 84.000000"
 preserveAspectRatio="xMidYMid meet">
<metadata>
Created by potrace 1.14, written by Peter Selinger 2001-2017
</metadata>
<g transform="translate(0.000000,84.000000) scale(0.100000,-0.100000)"
fill="#000000" stroke="none">
<path d="M416 804 c-3 -9 -2 -22 4 -29 8 -9 4 -11 -14 -8 -31 6 -83 -21 -91
-48 -4 -11 -1 -34 5 -50 l12 -29 97 0 97 0 11 31 c18 46 0 77 -53 91 -24 7
-40 16 -38 23 3 7 -2 17 -9 24 -12 9 -16 8 -21 -5z m-16 -78 c-4 -19 -5 -38
-1 -42 3 -4 -4 0 -16 7 -25 15 -30 38 -11 57 24 24 36 14 28 -22z m88 22 c18
-18 14 -46 -8 -58 -17 -9 -20 -8 -20 14 0 13 -3 31 -6 40 -7 19 16 22 34 4z
m-143 -56 l-7 -27 -9 24 c-6 16 -5 28 3 38 16 20 22 2 13 -35z m104 20 c-1
-15 -2 -14 -6 1 -5 18 -5 18 -19 0 -12 -16 -13 -16 -14 -1 0 16 19 29 33 21 4
-2 6 -12 6 -21z m84 -23 c-7 -27 -23 -5 -23 31 1 23 2 24 14 7 8 -10 11 -27 9
-38z"/>
<path d="M209 661 c-13 -11 -22 -22 -19 -24 3 -3 18 6 33 19 33 28 20 33 -14
5z"/>
<path d="M635 655 c17 -13 35 -24 40 -24 6 0 -3 11 -20 24 -16 14 -34 25 -40
25 -5 0 4 -11 20 -25z"/>
<path d="M152 628 c-7 -7 -12 -22 -12 -35 0 -13 -5 -22 -11 -20 -6 1 -20 -23
-31 -54 -19 -51 -20 -58 -6 -78 l15 -22 17 26 c22 33 16 54 -7 31 -16 -16 -17
-16 -17 11 0 18 3 23 8 15 7 -10 12 -8 24 5 28 33 33 47 15 40 -30 -11 -18 11
17 31 23 14 33 16 30 7 -3 -7 2 -28 11 -45 17 -33 20 -74 12 -225 -2 -49 0
-100 4 -112 7 -20 6 -21 -23 -12 -42 12 -45 6 -12 -20 18 -14 40 -21 63 -20
36 2 152 -48 167 -72 4 -8 3 -9 -5 -5 -19 12 -44 -14 -30 -30 6 -8 16 -11 22
-7 6 3 7 1 3 -5 -3 -6 3 -16 14 -22 17 -9 22 -7 30 12 5 13 9 19 9 14 1 -5 8
-3 16 4 21 18 -2 54 -25 38 -13 -11 -13 -10 0 5 28 31 130 75 162 70 33 -5 78
19 78 42 0 7 8 16 18 19 19 6 26 18 55 86 18 43 22 135 6 124 -8 -5 -8 -1 0
15 12 22 5 71 -11 71 -5 0 -7 8 -4 18 4 11 -2 27 -14 40 -11 11 -20 28 -20 35
0 8 -8 21 -17 28 -15 12 -16 12 -11 -7 4 -17 2 -20 -13 -17 -11 3 -19 1 -19
-4 0 -10 50 -38 63 -35 4 1 7 -5 7 -14 0 -10 -6 -14 -15 -10 -8 3 -15 2 -15
-3 0 -13 46 -52 53 -44 4 3 7 -1 7 -10 0 -20 -11 -22 -28 -5 -20 20 -15 -13 8
-47 26 -39 26 -58 0 -25 l-19 25 5 -30 c10 -58 14 -67 30 -54 8 7 14 7 14 1 0
-5 -7 -15 -15 -22 -12 -10 -16 -8 -24 11 -11 28 -11 28 -17 -30 -4 -38 -2 -42
13 -37 14 6 14 4 -3 -15 l-19 -21 -5 32 -5 33 -21 -46 c-16 -34 -18 -49 -10
-59 6 -7 7 -10 2 -6 -5 4 -17 3 -27 -2 -16 -9 -17 -8 -6 13 7 13 11 50 10 83
-1 32 -3 95 -4 139 -2 59 2 90 14 114 15 31 15 35 -1 57 -19 27 -10 26 -246
26 -98 0 -181 -3 -185 -8 -3 -5 -19 -10 -34 -11 -22 -1 -25 2 -17 12 14 17 -3
28 -18 13z m253 -27 c6 -1 11 -22 11 -47 0 -42 -2 -44 -16 -27 -20 24 -58 29
-66 9 -3 -9 -12 -16 -20 -16 -8 0 -14 -4 -14 -9 0 -5 -9 -13 -21 -16 -16 -5
-18 -10 -8 -21 13 -16 33 -19 24 -4 -3 6 0 17 9 25 17 17 30 20 21 5 -3 -5 -1
-10 4 -10 6 0 11 9 11 20 0 25 23 26 50 3 30 -26 25 -36 -36 -66 -33 -17 -62
-39 -72 -57 -29 -50 -44 -39 -39 30 3 40 -2 76 -14 109 -17 51 -14 62 18 72
11 3 115 3 158 0z m5 -154 c0 -7 -16 -19 -35 -26 -19 -6 -43 -23 -54 -37 -20
-26 -31 -30 -31 -13 0 16 56 58 118 88 1 0 2 -5 2 -12z m0 -42 c-7 -8 -18 -15
-25 -15 -7 0 -18 -7 -25 -15 -13 -16 -30 -20 -30 -7 0 9 69 51 84 52 5 0 3 -7
-4 -15z m5 -35 c-3 -5 -14 -10 -23 -10 -15 0 -15 2 -2 10 20 13 33 13 25 0z
m206 -50 c5 -70 -11 -111 -53 -141 -21 -15 -28 -17 -19 -6 16 20 8 79 -14 97
-12 10 -15 9 -15 -8 0 -11 6 -22 13 -25 6 -2 -4 -4 -23 -4 -19 0 -27 2 -16 4
15 4 17 11 12 36 -7 36 -25 50 -43 35 -16 -13 -28 -4 -20 14 7 21 177 19 178
-2z m-131 -31 c0 -5 -5 -7 -12 -3 -7 5 -9 1 -6 -13 3 -12 0 -20 -8 -20 -17 0
-17 3 -4 28 11 20 30 26 30 8z m-28 -71 c-7 -7 -12 -8 -12 -2 0 14 12 26 19
19 2 -3 -1 -11 -7 -17z m35 -26 c-9 -10 -14 -27 -11 -38 3 -13 0 -23 -8 -27
-11 -4 -13 2 -10 25 4 24 2 29 -9 23 -12 -8 -12 -6 0 8 7 9 17 14 22 11 5 -3
9 0 9 5 0 6 5 11 12 11 7 0 5 -7 -5 -18z m53 9 c0 -13 -29 -35 -37 -27 -3 3
-1 6 5 6 7 0 11 3 11 8 -3 14 1 22 11 22 6 0 10 -4 10 -9z m-35 -51 c3 -5 1
-10 -4 -10 -6 0 -11 5 -11 10 0 6 2 10 4 10 3 0 8 -4 11 -10z"/>
<path d="M305 469 c4 -6 -1 -17 -11 -24 -11 -8 -14 -15 -8 -15 19 0 47 27 40
38 -4 7 -12 12 -17 12 -6 0 -7 -5 -4 -11z"/>
<path d="M79 425 c-1 -11 0 -24 1 -30 1 -5 2 -25 1 -43 0 -33 34 -82 58 -82
11 0 12 39 3 75 -5 18 -5 18 -14 -4 -7 -19 -11 -21 -23 -11 -8 7 -15 17 -15
22 0 7 5 6 13 -1 11 -8 16 -3 24 24 7 21 7 37 2 41 -5 3 -9 0 -9 -5 0 -19 -17
-12 -28 12 -10 21 -11 21 -13 2z"/>
<path d="M161 278 c-1 -28 -14 -37 -26 -18 -3 6 -13 10 -21 10 -27 0 15 -48
52 -60 20 -7 37 -10 39 -8 1 1 -8 26 -20 53 -20 44 -23 47 -24 23z"/>
</g>
</svg>
